<svg xmlns="http://www.w3.org/2000/svg" width="20" height="20" viewBox="0 0 20 20">
  <g id="Icon_Marker" data-name="Icon / Marker" transform="translate(-544 -4709)">
    <rect id="Box" width="20" height="20" transform="translate(544 4709)" fill="none"/>
    <path id="合体_20" data-name="合体 20" d="M5.711,16c-.039-.039-3.845-4.2-5.227-8.166A6.282,6.282,0,0,1,.4,3.223,5.213,5.213,0,0,1,2.4.93,7.047,7.047,0,0,1,5.713,0a7.061,7.061,0,0,1,3.32.93,5.238,5.238,0,0,1,2,2.294,6.283,6.283,0,0,1-.09,4.608C9.563,11.792,5.75,15.958,5.713,16v0ZM3.343,2.3C2.2,3.087,1.035,4.625,1.979,7.47A21.933,21.933,0,0,0,5.711,13.6,21.776,21.776,0,0,0,9.45,7.47c.943-2.843-.222-4.38-1.364-5.171a4.721,4.721,0,0,0-2.373-.7A4.7,4.7,0,0,0,3.343,2.3ZM4.08,5.6A1.633,1.633,0,1,1,5.713,7.2,1.617,1.617,0,0,1,4.08,5.6Z" transform="translate(548.285 4711.428)"/>
  </g>
</svg>
