<svg xmlns="http://www.w3.org/2000/svg" width="24" height="24" viewBox="0 0 24 24">
  <g id="Icon_Twitter" data-name="Icon / Twitter" transform="translate(-628 -4709)">
    <rect id="Box" width="24" height="24" transform="translate(628 4709)" fill="none"/>
    <path id="Icon" d="M22,5.45a8.366,8.366,0,0,1-2.407.66,4.2,4.2,0,0,0,1.842-2.318,8.4,8.4,0,0,1-2.662,1.017,4.192,4.192,0,0,0-7.249,2.867,4.238,4.238,0,0,0,.108.955A11.9,11.9,0,0,1,2.993,4.251a4.2,4.2,0,0,0,1.3,5.6,4.182,4.182,0,0,1-1.9-.524v.053a4.191,4.191,0,0,0,3.362,4.109,4.192,4.192,0,0,1-1.1.147,4.267,4.267,0,0,1-.788-.075,4.2,4.2,0,0,0,3.915,2.911A8.456,8.456,0,0,1,1.571,18.2a11.865,11.865,0,0,0,6.424,1.882A11.842,11.842,0,0,0,19.918,8.161q0-.272-.012-.542A8.528,8.528,0,0,0,22,5.45Z" transform="translate(628.216 4709.515)"/>
  </g>
</svg>
