<svg xmlns="http://www.w3.org/2000/svg" width="20" height="20" viewBox="0 0 20 20">
  <g id="Icon_Mail" data-name="Icon / Mail" transform="translate(-664 -4709)">
    <rect id="Box" width="20" height="20" transform="translate(664 4709)" fill="none"/>
    <path id="合体_24" data-name="合体 24" d="M1,20.049a1,1,0,0,1-1-1v-12a1,1,0,0,1,1-1H15a1,1,0,0,1,1,1v12a1,1,0,0,1-1,1Zm.5-2a.5.5,0,0,0,.5.5H14a.5.5,0,0,0,.5-.5V8.69L8.118,13.16a.282.282,0,0,1-.272,0L1.5,8.721ZM8,11.825l6.093-4.268A.5.5,0,0,0,14,7.549H2a.5.5,0,0,0-.095.009Z" transform="translate(666 4705.951)"/>
  </g>
</svg>
