<svg xmlns="http://www.w3.org/2000/svg" width="120" height="120.003" viewBox="0 0 120 120.003">
  <path id="LogoSymbol_White" d="M120,120h0L0,120V0H120V120ZM6,6V114H114V6ZM112.5,112.5h0l-105,0V7.5h105v105ZM88.01,96.194c2.5,0,4.845.045,6.963.132v-.891a6.371,6.371,0,0,1-1.828-1.069,8.026,8.026,0,0,1-1.388-1.652L81.365,76.519l5.573-6.647a12.287,12.287,0,0,1,6.469-4.285v-.848c-1.07.092-2.442.135-4.19.135-2.264,0-4.486-.045-6.6-.135v.848a4.607,4.607,0,0,1,2.433.716,1.985,1.985,0,0,1,.869,1.7c0,1.185-.69,2.582-2.052,4.15l-2.63,3.167a18.243,18.243,0,0,1-3.348,3.121,6.381,6.381,0,0,1-3.259,1.072V69.469a8.873,8.873,0,0,1,.243-2.454,1.555,1.555,0,0,1,.921-1.026,7.624,7.624,0,0,1,2.184-.356v-.894c-1.61.092-3.816.135-6.739.135-3.243,0-5.548-.044-7.047-.135v.894a7.851,7.851,0,0,1,2.165.356,1.551,1.551,0,0,1,.934,1.026,8.754,8.754,0,0,1,.246,2.454V91.6a8.651,8.651,0,0,1-.246,2.454,1.557,1.557,0,0,1-.934,1.029,7.833,7.833,0,0,1-2.165.354v.891c1.558-.089,3.93-.132,7.047-.132,2.837,0,5.1.045,6.739.132v-.891a7.63,7.63,0,0,1-2.184-.354,1.581,1.581,0,0,1-.921-1.029,8.9,8.9,0,0,1-.243-2.454V80.445a2.925,2.925,0,0,1,1.631.581,8.327,8.327,0,0,1,1.493,1.917l6.469,10.487a2.5,2.5,0,0,1,.491,1.115c0,.3-.182.5-.556.624a8.4,8.4,0,0,1-1.809.267v.891C84.211,96.237,86.118,96.194,88.01,96.194Zm4.2-70.63h0L24,95.53l.7.8L92.905,26.36l-.7-.8Zm-64.7,28.817A3.746,3.746,0,0,1,29.176,55,16.1,16.1,0,0,0,32.5,56.2a19.516,19.516,0,0,0,4.544.443,18.472,18.472,0,0,0,6.137-.975,9.9,9.9,0,0,0,4.374-2.911,7.246,7.246,0,0,0,1.615-4.776,7.477,7.477,0,0,0-1.053-3.974,11.291,11.291,0,0,0-2.714-3,47.979,47.979,0,0,0-4.544-3.021l-1.566-.98c-1.808-1.083-3.173-1.956-4.058-2.595A7.791,7.791,0,0,1,33.186,32.3a4.927,4.927,0,0,1-.734-2.705,4.079,4.079,0,0,1,1.493-3.313,5.953,5.953,0,0,1,3.883-1.22A7.044,7.044,0,0,1,42.1,26.42a9.011,9.011,0,0,1,2.835,3.534,13.523,13.523,0,0,1,1.2,4.574h1.126c0-4.722.083-8.132.243-10.131H46.381a5.137,5.137,0,0,1-.389,1.49.755.755,0,0,1-.686.467,1.84,1.84,0,0,1-.71-.181c-.256-.108-.559-.249-.953-.443a15.864,15.864,0,0,0-3.078-1.288A14.954,14.954,0,0,0,36.51,24a16.232,16.232,0,0,0-5.476.888,8.824,8.824,0,0,0-3.985,2.73,6.994,6.994,0,0,0-1.49,4.509,7.394,7.394,0,0,0,1.126,4.066,11.343,11.343,0,0,0,2.884,3.043c1.162.852,2.7,1.839,4.693,3.019a27.9,27.9,0,0,1,5.573,4,5.874,5.874,0,0,1,1.758,4.263,4.361,4.361,0,0,1-1.712,3.688,7.06,7.06,0,0,1-4.35,1.285A7.305,7.305,0,0,1,29.077,52.4a16.2,16.2,0,0,1-2.441-8.062H25.513c0,6.089-.067,10.126-.2,11.994h1.123a4.881,4.881,0,0,1,.394-1.488A.751.751,0,0,1,27.513,54.381Z" fill="#fff"/>
</svg>
