<svg xmlns="http://www.w3.org/2000/svg" xmlns:xlink="http://www.w3.org/1999/xlink" width="82" height="82" viewBox="0 0 82 82">
  <defs>
    <filter id="Container" x="0" y="0" width="82" height="82" filterUnits="userSpaceOnUse">
      <feOffset dx="2" dy="2" input="SourceAlpha"/>
      <feGaussianBlur stdDeviation="3" result="blur"/>
      <feFlood flood-opacity="0.322"/>
      <feComposite operator="in" in2="blur"/>
      <feComposite in="SourceGraphic"/>
    </filter>
  </defs>
  <g id="Marker" transform="translate(-666 -4614)">
    <g transform="matrix(1, 0, 0, 1, 666, 4614)" filter="url(#Container)">
      <circle id="Container-2" data-name="Container" cx="32" cy="32" r="32" transform="translate(7 7)" fill="#f4c54b"/>
    </g>
    <path id="Symbol" d="M32,32H0V0H32V32ZM1.6,1.6V30.4H30.4V1.6ZM30,30H2V2H30V30Zm-6.53-4.349c.667,0,1.292.012,1.857.035v-.238a1.7,1.7,0,0,1-.487-.285,2.14,2.14,0,0,1-.37-.441L21.7,20.4l1.486-1.773a3.276,3.276,0,0,1,1.725-1.143v-.226c-.285.024-.651.036-1.117.036-.6,0-1.2-.012-1.761-.036v.226a1.228,1.228,0,0,1,.649.191.529.529,0,0,1,.232.452,1.825,1.825,0,0,1-.547,1.107l-.7.845a4.865,4.865,0,0,1-.893.832,1.7,1.7,0,0,1-.869.286V18.525a2.366,2.366,0,0,1,.065-.654.415.415,0,0,1,.246-.274,2.033,2.033,0,0,1,.582-.1v-.238c-.429.024-1.018.036-1.8.036-.865,0-1.48-.012-1.879-.036V17.5a2.094,2.094,0,0,1,.577.1.414.414,0,0,1,.249.274,2.334,2.334,0,0,1,.066.654v5.9a2.307,2.307,0,0,1-.066.654.415.415,0,0,1-.249.274,2.089,2.089,0,0,1-.577.094v.238c.415-.024,1.048-.035,1.879-.035.756,0,1.361.012,1.8.035v-.238a2.034,2.034,0,0,1-.582-.094.422.422,0,0,1-.246-.274,2.373,2.373,0,0,1-.065-.654V21.452a.78.78,0,0,1,.435.155,2.22,2.22,0,0,1,.4.511l1.725,2.8a.667.667,0,0,1,.131.3c0,.079-.049.134-.148.166a2.241,2.241,0,0,1-.482.071v.238C22.456,25.663,22.965,25.651,23.469,25.651Zm1.12-18.834h0L6.4,25.474l.186.212L24.775,7.029l-.186-.212ZM7.337,14.5a1,1,0,0,1,.444.166,4.293,4.293,0,0,0,.886.32,5.2,5.2,0,0,0,1.212.118,4.926,4.926,0,0,0,1.637-.26,2.641,2.641,0,0,0,1.166-.776,1.932,1.932,0,0,0,.431-1.274,1.994,1.994,0,0,0-.281-1.06,3.011,3.011,0,0,0-.724-.8,12.8,12.8,0,0,0-1.212-.806l-.418-.261C10,9.581,9.632,9.348,9.4,9.178a2.077,2.077,0,0,1-.546-.564,1.314,1.314,0,0,1-.2-.721,1.088,1.088,0,0,1,.4-.883,1.587,1.587,0,0,1,1.035-.325,1.878,1.878,0,0,1,1.14.361,2.4,2.4,0,0,1,.756.942,3.606,3.606,0,0,1,.319,1.22h.3c0-1.259.022-2.168.065-2.7h-.3a1.37,1.37,0,0,1-.1.4.2.2,0,0,1-.183.125.491.491,0,0,1-.189-.048c-.068-.029-.149-.066-.254-.118a4.231,4.231,0,0,0-.821-.343A3.988,3.988,0,0,0,9.736,6.4a4.329,4.329,0,0,0-1.46.237,2.353,2.353,0,0,0-1.063.728,1.865,1.865,0,0,0-.4,1.2,1.972,1.972,0,0,0,.3,1.084,3.025,3.025,0,0,0,.769.811c.31.227.719.49,1.251.8a7.44,7.44,0,0,1,1.486,1.066,1.566,1.566,0,0,1,.469,1.137,1.163,1.163,0,0,1-.456.984,1.883,1.883,0,0,1-1.16.343,1.948,1.948,0,0,1-1.721-.823,4.32,4.32,0,0,1-.651-2.15H6.8c0,1.624-.018,2.7-.053,3.2h.3a1.3,1.3,0,0,1,.105-.4A.2.2,0,0,1,7.337,14.5Z" transform="translate(689 4637)" fill="#111"/>
  </g>
</svg>
